<svg width="16" height="16" viewBox="0 0 16 16" fill="none" xmlns="http://www.w3.org/2000/svg">
<path fill-rule="evenodd" clip-rule="evenodd" d="M8.05149 15.5407C4.55014 15.4628 2 13.1863 2 10.2924C2 7.83222 3.26398 6.17832 5.16255 4.20868C6.40204 2.92278 6.87292 1.72183 7.18551 0.924576C7.35172 0.500656 7.47318 0.190877 7.64164 0.0431614C8.12693 -0.382357 10.7304 2.48079 11.4452 3.51594C13.2398 6.11471 13.879 7.31846 13.9043 10.1645C13.9296 13.0106 11.5528 15.6186 8.05149 15.5407ZM8.67403 9.87237L8.67387 9.87218C8.27156 9.35417 7.86217 8.82701 7.59206 8.26664C7.33615 8.6196 7.05764 9.04205 6.79469 9.5185C6.13467 10.7146 5.8 11.8362 5.8 12.852C5.8 14.1467 6.77196 15.2 7.96666 15.2C9.16137 15.2 10.1333 14.1467 10.1333 12.852C10.1333 11.7514 9.39148 10.7962 8.67403 9.87237Z" fill="#7265E3"/>
</svg>
